# Blender 4.2.1 LTS
# www.blender.org
o Cube

v 1.000000 1.000000 -1.000000
v 1.000000 -1.000000 -1.000000
v 1.000000 1.000000 1.000000
v 1.000000 -1.000000 1.000000
v -1.000000 1.000000 -1.000000
v -1.000000 -1.000000 -1.000000
v -1.000000 1.000000 1.000000
v -1.000000 -1.000000 1.000000

vn -0.0000 1.0000 -0.0000
vn -0.0000 -0.0000 1.0000
vn -1.0000 -0.0000 -0.0000
vn -0.0000 -1.0000 -0.0000
vn 1.0000 -0.0000 -0.0000
vn -0.0000 -0.0000 -1.0000

# Entire texture
vt 0.000000 0.000000
vt 1.000000 0.000000
vt 1.000000 1.000000
vt 0.000000 1.000000

s 0

# Top
f 5/1/1 3/3/1 1/2/1
f 5/1/1 7/4/1 3/3/1

# Front
f 3/3/2 8/1/2 4/2/2
f 3/3/2 7/4/2 8/1/2

# Left
f 7/3/3 6/1/3 8/2/3
f 7/3/3 5/4/3 6/1/3

# Bottom
f 2/2/4 8/4/4 6/1/4
f 2/2/4 4/3/4 8/4/4

# Right
f 1/3/5 4/1/5 2/2/5
f 1/3/5 3/4/5 4/1/5

# Back
f 5/4/6 2/2/6 6/1/6
f 5/4/6 1/3/6 2/2/6