# Blender 4.2.1 LTS
# www.blender.org
mtllib untitled.mtl
o light
v 3.347061 -8.080534 0.000001
v 6.184567 -6.184574 0.000000
v 8.080529 -3.347070 0.000000
v 8.746305 -0.000004 0.000000
v 8.080533 3.347062 -0.000000
v 6.184574 6.184568 -0.000000
v 3.347069 8.080530 -0.000001
v 0.000003 8.746304 -0.000001
v -3.347063 8.080532 -0.000001
v -6.184570 6.184572 -0.000000
v -8.080531 3.347067 -0.000000
v -8.746305 0.000001 -0.000000
v -8.080533 -3.347065 0.000000
v -6.184572 -6.184570 0.000000
v -3.347066 -8.080532 0.000001
v 0.000000 -8.746304 0.000001
v 3.347061 -8.080534 0.952227
v 6.184567 -6.184574 0.952227
v 8.080528 -3.347070 0.952225
v 8.746304 -0.000004 0.952225
v 8.080533 3.347062 0.952225
v 6.184574 6.184568 0.952227
v 3.347069 8.080530 0.952226
v 0.000003 8.746304 0.952225
v -3.347064 8.080532 0.952225
v -6.184570 6.184572 0.952227
v -8.080532 3.347067 0.952225
v -8.746304 0.000001 0.952225
v -8.080532 -3.347065 0.952225
v -6.184572 -6.184570 0.952227
v -3.347066 -8.080532 0.952227
v 0.000000 -8.746304 0.952227
v 2.648761 -6.394686 3.530449
v 4.894275 -4.894280 3.530449
v 0.000000 0.000000 3.530449
v 6.394680 -2.648767 3.530451
v 6.921554 -0.000003 3.530449
v 6.394684 2.648762 3.530451
v 4.894280 4.894279 3.530448
v 2.648767 6.394684 3.530448
v 0.000002 6.921556 3.530448
v -2.648762 6.394684 3.530448
v -4.894278 4.894279 3.530448
v -6.394684 2.648767 3.530449
v -6.921555 0.000001 3.530449
v -6.394684 -2.648765 3.530449
v -4.894279 -4.894278 3.530449
v -2.648766 -6.394683 3.530449
v 0.000000 -6.921555 3.530449
v 2.810875 -6.786064 2.338750
v 5.193823 -5.193829 2.338749
v 6.786058 -2.810883 2.338751
v 7.345179 -0.000004 2.338749
v 6.786063 2.810876 2.338751
v 5.193829 5.193825 2.338748
v 2.810882 6.786060 2.338749
v 0.000003 7.345179 2.338749
v -2.810877 6.786062 2.338749
v -5.193825 5.193829 2.338748
v -6.786062 2.810880 2.338749
v -7.345179 0.000001 2.338749
v -6.786062 -2.810878 2.338749
v -5.193829 -5.193827 2.338749
v -2.810879 -6.786062 2.338750
v 0.000001 -7.345179 2.338750
v 0.515427 -7.279686 15.982654
v 0.892746 -7.279687 15.605334
v 1.030853 -7.279687 15.089908
v 0.892746 -7.279687 14.574479
v 0.515427 -7.279687 14.197160
v 0.000000 -7.279687 14.059053
v -0.515427 -7.279687 14.197160
v -0.892746 -7.279687 14.574478
v -1.030853 -7.279687 15.089906
v -0.892746 -7.279687 15.605334
v -0.515427 -7.279686 15.982653
v 0.000000 -7.279686 16.120760
v 0.822479 -6.588876 16.514486
v 1.424583 -6.588876 15.912389
v 1.644966 -6.588876 15.089908
v 1.424583 -6.588876 14.267423
v 0.822483 -6.588876 13.665326
v 0.000000 -6.588876 13.444943
v -0.822479 -6.588876 13.665326
v -1.424583 -6.588876 14.267425
v -1.644966 -6.588876 15.089906
v -1.424583 -6.588876 15.912389
v -0.822479 -6.588876 16.514486
v 0.000000 -6.588876 16.734869
v 0.000000 -7.279687 15.089907
v 0.915016 -5.824672 16.674757
v 1.584846 -5.824672 16.004917
v 1.830025 -5.824672 15.089906
v 1.584846 -5.824672 14.174891
v 0.915012 -5.824672 13.505056
v 0.000000 -5.824672 13.259877
v -0.915016 -5.824672 13.505054
v -1.584846 -5.824672 14.174890
v -1.830025 -5.824672 15.089905
v -1.584846 -5.824672 16.004917
v -0.915016 -5.824672 16.674755
v 0.000000 -5.824672 16.919933
v 1.547569 -4.813377 17.770367
v 2.680466 -4.813377 16.637474
v 3.095131 -4.813378 15.089905
v 2.680462 -4.813378 13.542336
v 1.547565 -4.813378 12.409445
v 0.000000 -4.813378 11.994770
v -1.547565 -4.813378 12.409445
v -2.680466 -4.813378 13.542336
v -3.095131 -4.813378 15.089906
v -2.680466 -4.813377 16.637474
v -1.547569 -4.813377 17.770367
v 0.000000 -4.813377 18.185040
v 2.024460 -3.521033 18.596363
v 3.506454 -3.521033 17.114359
v 4.048912 -3.521033 15.089905
v 3.506458 -3.521033 13.065447
v 2.024456 -3.521033 11.583448
v 0.000000 -3.521033 11.040992
v -2.024456 -3.521033 11.583448
v -3.506454 -3.521033 13.065447
v -4.048912 -3.521033 15.089906
v -3.506454 -3.521033 17.114357
v -2.024460 -3.521033 18.596363
v 0.000000 -3.521033 19.138821
v 2.024460 -2.731405 18.596363
v 3.506454 -2.731406 17.114359
v 4.048912 -2.731406 15.089905
v 3.506458 -2.731406 13.065447
v 2.024456 -2.731406 11.583448
v 0.000000 -2.731406 11.040992
v -2.024456 -2.731406 11.583448
v -3.506454 -2.731406 13.065447
v -4.048912 -2.731406 15.089906
v -3.506454 -2.731406 17.114357
v -2.024460 -2.731405 18.596363
v 0.000000 -2.731405 19.138821
v 1.910011 -2.731405 18.398140
v 3.308235 -2.731406 16.999916
v 3.820023 -2.731406 15.089907
v 3.308235 -2.731406 13.179891
v 1.910011 -2.731406 11.781669
v 0.000000 -2.731406 11.269880
v -1.910011 -2.731406 11.781670
v -3.308235 -2.731406 13.179891
v -3.820023 -2.731406 15.089906
v -3.308235 -2.731406 16.999916
v -1.910011 -2.731405 18.398140
v 0.000000 -2.731405 18.909931
v 4.103386 13.002691 22.197170
v 7.107262 13.002691 19.193281
v 8.206772 13.002690 15.089904
v 7.107265 13.002690 10.986514
v 4.103386 13.002690 7.982638
v 0.000000 13.002690 6.883131
v -4.103386 13.002690 7.982639
v -7.107265 13.002690 10.986514
v -8.206772 13.002690 15.089904
v -7.107262 13.002691 19.193281
v -4.103386 13.002691 22.197168
v 0.000000 13.002691 23.296679
v 3.886452 13.276747 21.821432
v 6.731529 13.276747 18.976349
v 7.772903 13.276746 15.089904
v 6.731525 13.276746 11.203446
v 3.886452 13.276746 8.358375
v 0.000000 13.276746 7.316998
v -3.886452 13.276746 8.358375
v -6.731525 13.276746 11.203444
v -7.772903 13.276746 15.089904
v -6.731529 13.276747 18.976351
v -3.886452 13.276747 21.821432
v 0.000000 13.276747 22.862814
v 3.007965 0.781003 20.299850
v 2.549904 -1.026252 19.506462
v 3.124985 2.780532 20.502539
v 5.209946 0.781002 18.097866
v 4.416557 -1.026252 17.639805
v 5.412636 2.780532 18.214890
v 6.015930 0.781002 15.089907
v 5.099808 -1.026252 15.089907
v 6.249977 2.780532 15.089907
v 5.209942 0.781002 12.081936
v 4.416557 -1.026252 12.539999
v 5.412632 2.780532 11.964912
v 3.007965 0.781002 9.879964
v 2.549904 -1.026252 10.673348
v 3.124989 2.780532 9.677272
v 0.000000 0.781002 9.073977
v 0.000000 -1.026252 9.990098
v 0.000000 2.780532 8.839930
v -3.007965 0.781002 9.879965
v -2.549904 -1.026252 10.673348
v -3.124989 2.780532 9.677271
v -5.209942 0.781002 12.081935
v -4.416557 -1.026252 12.539997
v -5.412632 2.780532 11.964911
v -6.015930 0.781002 15.089906
v -5.099808 -1.026252 15.089906
v -6.249977 2.780532 15.089906
v -5.209946 0.781002 18.097868
v -4.416557 -1.026252 17.639805
v -5.412636 2.780532 18.214891
v -3.007965 0.781003 20.299850
v -2.549904 -1.026252 19.506462
v -3.124985 2.780532 20.502541
v 0.000000 0.781003 21.105841
v 0.000000 -1.026251 20.189714
v 0.000000 2.780533 21.339886
v 3.536453 11.911993 21.215214
v 3.075737 10.133307 20.417240
v 6.125305 11.911992 18.626350
v 5.327332 10.133306 18.165642
v 7.072903 11.911992 15.089904
v 6.151482 10.133306 15.089906
v 6.125309 11.911992 11.553447
v 5.327332 10.133306 12.014159
v 3.536453 11.911992 8.964595
v 3.075741 10.133306 9.762571
v 0.000000 11.911992 8.016998
v 0.000000 10.133306 8.938422
v -3.536453 11.911992 8.964595
v -3.075741 10.133306 9.762571
v -6.125309 11.911992 11.553447
v -5.327332 10.133306 12.014158
v -7.072906 11.911992 15.089904
v -6.151482 10.133306 15.089905
v -6.125305 11.911992 18.626350
v -5.327332 10.133306 18.165642
v -3.536453 11.911993 21.215214
v -3.075737 10.133307 20.417238
v 0.000000 11.911993 22.162813
v 0.000000 10.133307 21.241388
v 2.402771 10.097262 19.251625
v 4.161720 10.097261 17.492672
v 4.805542 10.097261 15.089906
v 4.161716 10.097261 12.687129
v 2.402771 10.097261 10.928185
v 0.000000 10.097261 10.284362
v -2.402771 10.097261 10.928185
v -4.161716 10.097261 12.687129
v -4.805542 10.097261 15.089906
v -4.161720 10.097261 17.492674
v -2.402771 10.097262 19.251623
v 0.000000 10.097262 19.895452
v 1.696274 -0.000173 18.027939
v 2.938034 -0.000173 16.786179
v 3.392548 -0.000173 15.089908
v 2.938030 -0.000173 13.393629
v 1.696274 -0.000173 12.151875
v 0.000000 -0.000173 11.697357
v -1.696274 -0.000173 12.151874
v -2.938034 -0.000173 13.393629
v -3.392548 -0.000173 15.089907
v -2.938034 -0.000173 16.786179
v -1.696274 -0.000173 18.027937
v 0.000000 -0.000173 18.482458
v 0.000000 -6.821877 15.089908
v 0.646347 0.223328 3.949789
v -0.646347 0.223328 3.949789
v 0.000000 0.223328 5.069295
v 0.646347 -4.285367 3.928274
v 0.646347 -8.806953 4.397440
v 0.646347 -11.453560 5.106950
v 0.646347 -13.075526 6.403038
v 0.646347 -13.806216 7.563208
v 0.646347 -14.194316 9.116850
v 0.646347 -14.154265 10.597569
v 0.646347 -13.707088 12.152906
v 0.646347 -12.581771 13.651193
v 0.646347 -11.020381 14.818721
v 0.646347 -9.408515 15.433841
v 0.646347 -7.103276 15.574435
v -0.646347 -4.285367 3.928273
v -0.646347 -8.806953 4.397440
v -0.646347 -11.453560 5.106950
v -0.646347 -13.075526 6.403038
v -0.646347 -13.806216 7.563207
v -0.646347 -14.194316 9.116850
v -0.646347 -14.154265 10.597569
v -0.646347 -13.707088 12.152906
v -0.646347 -12.581771 13.651194
v -0.646347 -11.020381 14.818720
v -0.646347 -9.408515 15.433841
v -0.646347 -7.103276 15.574436
v 0.000000 -4.290708 5.047769
v 0.000000 -8.610506 5.499578
v 0.000000 -11.076931 6.161202
v 0.000000 -12.256083 7.165803
v 0.000000 -12.820693 8.094287
v 0.000000 -13.081782 9.241590
v 0.000000 -13.039123 10.498826
v 0.000000 -12.673409 11.723020
v 0.000000 -11.769641 12.880653
v 0.000000 -10.428626 13.868396
v 0.000000 -9.137248 14.347698
v 0.000000 -7.080955 14.455154
v 0.776641 -0.776641 3.530450
v 1.098335 0.000000 3.530450
v 0.776641 0.776641 3.530450
v 0.000000 1.098336 3.530449
v -0.776640 0.776641 3.530449
v -1.098335 0.000000 3.530449
v -0.776640 -0.776641 3.530449
v 0.000000 -1.098336 3.530449
v 0.000000 0.000000 5.989100
v 0.776640 -0.776641 5.481787
v 1.098335 0.000000 5.481787
v 0.776640 0.776641 5.481787
v 0.000000 1.098336 5.481787
v -0.776640 0.776641 5.481787
v -1.098335 0.000000 5.481787
v -0.776640 -0.776641 5.481787
v 0.000000 -1.098336 5.481787
v 1.318550 -4.522686 15.851171
v 1.318550 -4.522687 14.328640
v 0.000000 -4.522687 13.567373
v -1.318550 -4.522687 14.328638
v -1.318550 -4.522686 15.851173
v 0.000000 -4.522686 16.612438
v 3.321358 7.892045 17.007494
v 3.321362 7.892045 13.172316
v 0.000000 7.892045 11.254727
v -3.321362 7.892045 13.172315
v -3.321365 7.892045 17.007494
v 0.000000 7.892045 18.925083
v 0.000000 9.055966 15.089905
vn 0.7071 -0.7071 -0.0000
vn 0.3827 -0.9239 -0.0000
vn 0.9239 -0.3827 -0.0000
vn 1.0000 -0.0000 -0.0000
vn 0.9239 0.3827 -0.0000
vn 0.7071 0.7071 -0.0000
vn 0.3827 0.9239 -0.0000
vn -0.0000 1.0000 -0.0000
vn -0.3827 0.9239 -0.0000
vn -0.7071 0.7071 -0.0000
vn -0.9239 0.3827 -0.0000
vn -1.0000 -0.0000 -0.0000
vn -0.9239 -0.3827 -0.0000
vn -0.7071 -0.7071 -0.0000
vn -0.3827 -0.9239 -0.0000
vn -0.0000 -1.0000 -0.0000
vn -0.0000 -0.0000 1.0000
vn 0.2788 -0.7562 0.5920
vn -0.0000 -0.7034 0.7108
vn 0.2692 -0.6499 0.7108
vn -0.0532 -0.8508 0.5227
vn 0.3606 -0.8705 0.3349
vn -0.0000 -0.9422 0.3349
vn 0.5403 -0.6156 0.5737
vn 0.4974 -0.4974 0.7108
vn 0.7350 -0.3617 0.5736
vn 0.6663 -0.6663 0.3349
vn 0.6499 -0.2692 0.7108
vn 0.8173 -0.0532 0.5737
vn 0.8705 -0.3606 0.3349
vn 0.7034 -0.0000 0.7108
vn 0.7755 0.2634 0.5738
vn 0.9422 -0.0000 0.3349
vn 0.6499 0.2692 0.7108
vn 0.6156 0.5403 0.5737
vn 0.8705 0.3606 0.3349
vn 0.4974 0.4974 0.7108
vn 0.3617 0.7350 0.5736
vn 0.6663 0.6663 0.3349
vn 0.2692 0.6499 0.7108
vn 0.0535 0.8172 0.5738
vn 0.3606 0.8705 0.3349
vn -0.0000 0.7034 0.7108
vn -0.3606 0.8705 0.3349
vn -0.0000 0.9422 0.3349
vn -0.2736 0.8048 0.5267
vn -0.2692 0.6499 0.7108
vn -0.5403 0.6156 0.5737
vn -0.4974 0.4974 0.7108
vn -0.7346 0.3621 0.5738
vn -0.6663 0.6663 0.3349
vn -0.6499 0.2692 0.7108
vn -0.9422 -0.0000 0.3349
vn -0.8705 0.3606 0.3349
vn -0.8483 0.0552 0.5267
vn -0.7034 -0.0000 0.7108
vn -0.7755 -0.2634 0.5738
vn -0.6499 -0.2692 0.7108
vn -0.6154 -0.5406 0.5736
vn -0.8705 -0.3606 0.3349
vn -0.4974 -0.4974 0.7108
vn -0.3621 -0.7346 0.5738
vn -0.6663 -0.6663 0.3349
vn -0.2692 -0.6499 0.7108
vn -0.3606 -0.8705 0.3349
vn 0.6472 -0.6644 0.3737
vn 0.3737 -0.6644 0.6473
vn 0.7474 -0.6644 -0.0000
vn 0.6472 -0.6644 -0.3737
vn 0.3737 -0.6644 -0.6472
vn 0.3737 -0.6644 -0.6473
vn -0.0000 -0.6644 -0.7474
vn -0.3737 -0.6644 -0.6473
vn -0.6472 -0.6644 -0.3737
vn -0.7474 -0.6644 -0.0000
vn -0.6472 -0.6644 0.3737
vn -0.3737 -0.6644 0.6473
vn -0.0000 -0.6644 0.7474
vn 0.8417 -0.2354 0.4860
vn 0.4860 -0.2354 0.8417
vn 0.4859 -0.2354 0.8417
vn 0.9719 -0.2354 -0.0000
vn 0.8417 -0.2354 -0.4859
vn 0.4860 -0.2354 -0.8417
vn 0.8417 -0.2354 -0.4860
vn -0.0000 -0.2354 -0.9719
vn -0.4860 -0.2354 -0.8417
vn -0.8417 -0.2354 -0.4860
vn -0.8417 -0.2354 -0.4859
vn -0.9719 -0.2354 -0.0000
vn -0.8417 -0.2354 0.4860
vn -0.4860 -0.2354 0.8417
vn -0.4859 -0.2354 0.8417
vn -0.0000 -0.2354 0.9719
vn 0.3122 -0.7811 0.5407
vn 0.6465 -0.6654 0.3732
vn 0.3733 -0.6653 0.6465
vn 0.5407 -0.7811 0.3122
vn 0.7467 -0.6652 -0.0000
vn 0.5407 -0.7811 -0.3122
vn 0.6244 -0.7811 -0.0000
vn 0.3733 -0.6654 -0.6465
vn 0.6467 -0.6795 -0.3466
vn -0.0000 -0.7811 -0.6244
vn 0.3122 -0.7811 -0.5407
vn -0.3733 -0.6654 -0.6465
vn 0.0233 -0.6794 -0.7334
vn -0.5407 -0.7811 -0.3122
vn -0.3122 -0.7811 -0.5407
vn -0.6244 -0.7811 -0.0000
vn -0.6234 -0.6794 -0.3869
vn -0.5407 -0.7811 0.3122
vn -0.7333 -0.6795 -0.0232
vn -0.3122 -0.7811 0.5407
vn -0.6466 -0.6795 0.3467
vn -0.0000 -0.7811 0.6244
vn -0.3868 -0.6795 0.6235
vn -0.0234 -0.6794 0.7334
vn 0.6968 -0.5938 0.4023
vn 0.4023 -0.5938 0.6968
vn 0.6968 -0.5938 -0.4023
vn 0.8046 -0.5938 -0.0000
vn 0.4023 -0.5938 -0.6968
vn -0.4023 -0.5938 -0.6968
vn -0.0000 -0.5938 -0.8046
vn -0.8046 -0.5938 -0.0000
vn -0.6968 -0.5938 -0.4023
vn -0.6968 -0.5938 0.4023
vn -0.4023 -0.5938 0.6968
vn -0.0000 -0.5938 0.8046
vn 0.8660 -0.0000 0.5000
vn 0.5000 -0.0000 0.8660
vn 0.8660 -0.0000 -0.5000
vn 0.5000 -0.0000 -0.8660
vn -0.0000 -0.0000 -1.0000
vn -0.5000 -0.0000 -0.8660
vn -0.8660 -0.0000 -0.5000
vn -0.8660 -0.0000 0.5000
vn -0.5000 -0.0000 0.8660
vn 0.9996 0.0235 -0.0186
vn -0.2981 0.8029 -0.5162
vn 0.4491 -0.4395 0.7779
vn 0.8563 0.0234 -0.5159
vn -0.1676 0.8114 0.5600
vn 0.4836 0.0234 -0.8750
vn 0.1281 0.8286 0.5450
vn -0.0186 0.0235 -0.9996
vn 0.4012 0.8114 0.4252
vn -0.5159 0.0234 -0.8563
vn 0.5501 0.8186 0.1651
vn -0.8721 0.0242 -0.4888
vn 0.5450 0.8286 -0.1281
vn 0.5249 0.7953 0.3031
vn 0.4282 0.8082 -0.4043
vn -0.4836 0.0233 -0.8750
vn 0.5720 0.8202 -0.0000
vn -0.4888 0.0242 0.8721
vn -0.8464 0.0637 -0.5287
vn 0.3031 0.7953 -0.5249
vn -0.4043 0.8082 -0.4282
vn -0.8750 0.0233 0.4836
vn -0.0000 0.8202 -0.5720
vn -0.5287 0.0637 0.8464
vn 0.4763 -0.2741 0.8355
vn -0.0000 -0.5154 0.8570
vn 0.4285 -0.5154 0.7422
vn 0.4819 -0.0198 0.8760
vn -0.0088 -0.2803 0.9599
vn 0.8659 -0.0132 0.5000
vn 0.8265 -0.2816 0.4874
vn 0.9622 -0.2725 -0.0000
vn 0.9999 -0.0139 -0.0000
vn 0.8570 -0.5153 -0.0000
vn 0.8659 -0.0136 -0.5000
vn 0.8354 -0.2816 -0.4721
vn 0.5000 -0.0136 -0.8659
vn 0.7370 -0.5188 -0.4332
vn 0.4874 -0.2816 -0.8265
vn -0.0000 -0.0136 -0.9999
vn -0.0000 -0.5154 -0.8570
vn 0.0088 -0.2816 -0.9595
vn -0.5000 -0.0136 -0.8659
vn -0.4721 -0.2816 -0.8354
vn -0.8659 -0.0136 -0.5000
vn -0.7422 -0.5153 -0.4285
vn -0.8265 -0.2816 -0.4874
vn -0.9999 -0.0136 -0.0000
vn -0.8570 -0.5153 -0.0000
vn -0.9595 -0.2816 -0.0088
vn -0.8659 -0.0133 0.5000
vn -0.8354 -0.2816 0.4721
vn -0.4811 -0.2725 0.8333
vn -0.5000 -0.0136 0.8659
vn -0.4285 -0.5154 0.7422
vn 0.0371 -0.0505 0.9980
vn 0.6926 -0.6003 0.3999
vn 0.3999 -0.6003 0.6926
vn 0.7998 -0.6003 -0.0000
vn 0.7353 -0.5283 0.4245
vn 0.6926 -0.6003 -0.3999
vn 0.4328 -0.5227 -0.7345
vn -0.0000 -0.6003 -0.7998
vn 0.3999 -0.6003 -0.6926
vn -0.4198 -0.5227 -0.7420
vn -0.6926 -0.6003 -0.3999
vn -0.3999 -0.6003 -0.6926
vn -0.7998 -0.6003 -0.0000
vn -0.7420 -0.5227 0.4198
vn -0.6926 -0.6003 0.3999
vn -0.0000 -0.6003 0.7998
vn -0.3999 -0.6003 0.6926
vn 0.3912 -0.6070 0.6917
vn 0.8614 -0.1034 0.4973
vn 0.6899 -0.6045 0.3983
vn -0.0000 -0.1003 0.9950
vn 0.3585 -0.2461 0.9005
vn 0.9948 -0.1017 -0.0000
vn 0.7967 -0.6044 -0.0000
vn 0.8617 -0.1003 -0.4975
vn 0.6899 -0.6044 -0.3983
vn 0.3983 -0.6044 -0.6899
vn -0.0000 -0.1003 -0.9950
vn -0.0000 -0.6043 -0.7967
vn -0.3983 -0.6045 -0.6899
vn -0.8615 -0.1017 -0.4974
vn -0.6899 -0.6044 -0.3983
vn -0.9950 -0.1003 -0.0000
vn -0.7967 -0.6043 -0.0000
vn -0.6899 -0.6044 0.3983
vn -0.4974 -0.1017 0.8615
vn -0.3983 -0.6044 0.6900
vn 0.0089 -0.6104 0.7921
vn 0.4643 -0.3711 -0.8042
vn -0.4643 -0.3711 -0.8042
vn -0.8042 -0.3711 0.4643
vn -0.4611 0.3867 -0.7986
vn -0.9216 0.3883 -0.0000
vn -0.8034 0.4576 -0.3809
vn -0.4613 0.3856 0.7990
vn -0.7325 0.4575 0.5042
vn -0.0000 0.3869 0.9221
vn 0.5040 0.4574 0.7326
vn 0.9225 0.3859 -0.0000
vn 0.8021 0.4573 0.3841
vn 0.7336 0.4573 -0.5027
vn -0.0000 0.3883 -0.9216
vn 0.3809 0.4576 -0.8034
vn -0.4891 0.2076 -0.8471
vn -0.9782 0.2077 -0.0000
vn -0.8663 0.2937 -0.4040
vn -0.7831 0.2937 0.5482
vn -0.0000 0.2076 0.9782
vn -0.4040 0.2937 0.8663
vn 0.4891 0.2076 0.8472
vn 0.8471 0.2077 0.4891
vn 0.8472 0.2077 -0.4891
vn 0.9523 0.2937 -0.0833
vn -0.0000 0.2077 -0.9782
vn 0.4040 0.2937 -0.8663
vn 0.8674 0.0024 -0.4976
vn -0.8479 -0.0273 -0.5295
vn -0.8673 0.0024 -0.4978
vn 0.8529 -0.0368 -0.5207
vn -0.8341 -0.0901 -0.5442
vn 0.8391 -0.1204 -0.5305
vn -0.7810 -0.2760 -0.5602
vn 0.8024 -0.3251 -0.5005
vn -0.7543 -0.4709 -0.4575
vn 0.7839 -0.5239 -0.3332
vn -0.7542 -0.6084 -0.2471
vn 0.8070 -0.5792 -0.1151
vn -0.7721 -0.6309 -0.0767
vn 0.8071 -0.5896 0.0307
vn -0.7837 -0.6129 0.1008
vn 0.8197 -0.5459 0.1733
vn -0.7563 -0.5806 0.3014
vn 0.8087 -0.4681 0.3561
vn -0.7793 -0.4433 0.4430
vn 0.8174 -0.3408 0.4644
vn -0.7855 -0.3015 0.5405
vn 0.8153 -0.2082 0.5404
vn -0.7854 -0.1188 0.6074
vn 0.8268 -0.0427 0.5609
vn -0.8287 -0.0368 0.5585
vn -0.0000 0.0505 0.9987
vn -0.0000 -0.0048 1.0000
vn -0.0000 0.1632 0.9866
vn -0.0000 0.4333 0.9012
vn -0.0000 0.7404 0.6722
vn -0.0000 0.9316 0.3636
vn -0.0000 0.9954 0.0959
vn -0.0000 0.9860 -0.1669
vn -0.0000 0.8814 -0.4724
vn -0.0000 0.6922 -0.7217
vn -0.0000 0.4828 -0.8757
vn -0.0000 0.1769 -0.9842
vn -0.0000 0.0522 -0.9986
vn 0.8281 -0.0371 0.5593
vn -0.0000 -0.9819 0.1893
vn 0.6943 -0.6943 0.1893
vn 0.9819 -0.0000 0.1893
vn 0.6936 0.6937 0.1942
vn 0.0002 0.9825 0.1860
vn -0.6943 0.6943 0.1893
vn -0.9819 0.0001 0.1893
vn -0.6943 -0.6943 0.1893
vn 0.8514 -0.1831 0.4915
vn 0.8656 -0.0322 -0.4998
vn 0.8657 -0.0292 0.4998
vn -0.0000 -0.1831 -0.9831
vn 0.8514 -0.1831 -0.4915
vn -0.8514 -0.1831 -0.4915
vn -0.4542 0.4952 -0.7406
vn -0.8514 -0.1831 0.4915
vn -0.8685 0.4952 0.0230
vn -0.0000 -0.0292 0.9996
vn -0.4182 0.4952 0.7615
vn -0.0000 -0.1831 0.9831
vt 0.128420 0.915689
vt 0.066194 0.935443
vt 0.066194 0.915689
vt 0.190645 0.935443
vt 0.128420 0.935443
vt 0.190645 0.915689
vt 0.252872 0.935443
vt 0.315097 0.915689
vt 0.252872 0.915689
vt 0.377324 0.915689
vt 0.315097 0.935443
vt 0.439549 0.915689
vt 0.377324 0.935443
vt 0.501775 0.915689
vt 0.439549 0.935443
vt 0.564001 0.915689
vt 0.501775 0.935443
vt 0.626227 0.915689
vt 0.564001 0.935443
vt 0.688453 0.915689
vt 0.626227 0.935443
vt 0.750679 0.915689
vt 0.688453 0.935443
vt 0.812905 0.915689
vt 0.750679 0.935443
vt 0.875131 0.915689
vt 0.812905 0.935443
vt 0.937357 0.915689
vt 0.875131 0.935443
vt 0.999583 0.915689
vt 0.937357 0.935443
vt 0.003968 0.935443
vt 0.003968 0.915689
vt 0.226738 0.601480
vt 0.278116 0.635954
vt 0.166133 0.748407
vt 0.312446 0.687548
vt 0.324502 0.748407
vt 0.312447 0.809266
vt 0.278117 0.860860
vt 0.226738 0.895334
vt 0.166133 0.907439
vt 0.105528 0.895334
vt 0.054149 0.860860
vt 0.019819 0.809266
vt 0.007764 0.748407
vt 0.019819 0.687548
vt 0.054149 0.635954
vt 0.105528 0.601480
vt 0.166133 0.589375
vt 0.066194 0.974285
vt 0.003968 0.974285
vt 0.066194 0.995071
vt 0.003968 0.995071
vt 0.128420 0.974285
vt 0.190645 0.974285
vt 0.128420 0.995071
vt 0.252872 0.974285
vt 0.190645 0.995071
vt 0.315097 0.974285
vt 0.252872 0.995071
vt 0.377324 0.974285
vt 0.315097 0.995071
vt 0.439549 0.974285
vt 0.377324 0.995071
vt 0.501775 0.974285
vt 0.439549 0.995071
vt 0.564001 0.995071
vt 0.501775 0.995071
vt 0.564001 0.974285
vt 0.626227 0.974285
vt 0.688453 0.974285
vt 0.626227 0.995071
vt 0.750679 0.995071
vt 0.688453 0.995071
vt 0.750679 0.974285
vt 0.812905 0.974285
vt 0.875131 0.974285
vt 0.812905 0.995071
vt 0.937357 0.974285
vt 0.875131 0.995071
vt 0.999583 0.995071
vt 0.937357 0.995071
vt 0.999583 0.974285
vt 0.999583 0.935443
vt 0.806830 0.012090
vt 0.760922 0.116666
vt 0.760922 0.012090
vt 0.852737 0.012090
vt 0.806830 0.116666
vt 0.898644 0.012090
vt 0.852737 0.116666
vt 0.944552 0.116666
vt 0.898644 0.116666
vt 0.944552 0.012090
vt 0.990459 0.116666
vt 0.439571 0.012090
vt 0.485478 0.116666
vt 0.439571 0.116666
vt 0.531386 0.012090
vt 0.485478 0.012090
vt 0.577293 0.012090
vt 0.531386 0.116666
vt 0.623201 0.012090
vt 0.577293 0.116666
vt 0.669108 0.116666
vt 0.623201 0.116666
vt 0.715015 0.012090
vt 0.669108 0.012090
vt 0.715015 0.116666
vt 0.701829 0.750328
vt 0.672944 0.721323
vt 0.741287 0.681700
vt 0.741287 0.760946
vt 0.780745 0.750328
vt 0.809630 0.721323
vt 0.820202 0.681700
vt 0.809630 0.642077
vt 0.780745 0.613071
vt 0.741287 0.602454
vt 0.701829 0.613071
vt 0.672944 0.642077
vt 0.662372 0.681700
vt 0.760922 0.200066
vt 0.806830 0.200066
vt 0.852737 0.200066
vt 0.898644 0.200066
vt 0.944552 0.200066
vt 0.439571 0.200066
vt 0.531386 0.200066
vt 0.485478 0.200066
vt 0.577293 0.200066
vt 0.669108 0.200066
vt 0.623201 0.200066
vt 0.715015 0.200066
vt 0.806830 0.288958
vt 0.760922 0.288958
vt 0.852737 0.288958
vt 0.944552 0.288958
vt 0.898644 0.288958
vt 0.990459 0.200066
vt 0.485478 0.288958
vt 0.439571 0.288958
vt 0.531386 0.288958
vt 0.577293 0.288958
vt 0.623201 0.288958
vt 0.669108 0.288958
vt 0.715015 0.288958
vt 0.806830 0.361657
vt 0.760922 0.361657
vt 0.898644 0.361657
vt 0.852737 0.361657
vt 0.944552 0.361657
vt 0.990459 0.288958
vt 0.485478 0.361657
vt 0.439571 0.361657
vt 0.577293 0.361657
vt 0.531386 0.361657
vt 0.623201 0.361657
vt 0.669108 0.361657
vt 0.715015 0.361657
vt 0.760922 0.410739
vt 0.806830 0.410739
vt 0.852737 0.410739
vt 0.898644 0.410739
vt 0.990459 0.361657
vt 0.944552 0.410739
vt 0.439571 0.410739
vt 0.485478 0.410739
vt 0.531386 0.410739
vt 0.577293 0.410739
vt 0.623201 0.410739
vt 0.669108 0.410739
vt 0.715015 0.410739
vt 0.806830 0.439623
vt 0.760922 0.439623
vt 0.852737 0.439623
vt 0.898644 0.439623
vt 0.990459 0.410739
vt 0.944552 0.439623
vt 0.485478 0.439623
vt 0.439571 0.439623
vt 0.531386 0.439623
vt 0.577293 0.439623
vt 0.623201 0.439623
vt 0.669108 0.439623
vt 0.715015 0.439623
vt 0.290406 0.570572
vt 0.255075 0.580899
vt 0.255075 0.570572
vt 0.325738 0.570572
vt 0.290406 0.580899
vt 0.361070 0.570573
vt 0.325739 0.580900
vt 0.396402 0.570572
vt 0.361070 0.580899
vt 0.431733 0.570572
vt 0.396401 0.580900
vt 0.043085 0.570573
vt 0.007753 0.580900
vt 0.007753 0.570573
vt 0.078416 0.580900
vt 0.043084 0.580899
vt 0.078416 0.570573
vt 0.113748 0.580900
vt 0.149079 0.570573
vt 0.113748 0.570573
vt 0.184411 0.580899
vt 0.149079 0.580899
vt 0.184411 0.570573
vt 0.219743 0.580899
vt 0.219743 0.570573
vt 0.255075 0.366078
vt 0.219743 0.324286
vt 0.255075 0.324286
vt 0.255075 0.394742
vt 0.219743 0.366077
vt 0.290407 0.394742
vt 0.290407 0.366077
vt 0.325739 0.366077
vt 0.325739 0.394742
vt 0.325739 0.324286
vt 0.361070 0.394742
vt 0.361070 0.366078
vt 0.396402 0.394742
vt 0.361070 0.324286
vt 0.396402 0.366077
vt 0.431733 0.394742
vt 0.431734 0.324286
vt 0.431733 0.366077
vt 0.007753 0.366077
vt 0.043084 0.394742
vt 0.007753 0.394742
vt 0.007752 0.324286
vt 0.043084 0.366077
vt 0.078416 0.394742
vt 0.078416 0.324286
vt 0.078416 0.366077
vt 0.113748 0.394742
vt 0.113748 0.324286
vt 0.113748 0.366077
vt 0.149080 0.394741
vt 0.149080 0.366078
vt 0.184412 0.366078
vt 0.184411 0.394741
vt 0.184411 0.324286
vt 0.219743 0.394742
vt 0.290406 0.268355
vt 0.255075 0.268355
vt 0.325739 0.268355
vt 0.290407 0.324286
vt 0.361070 0.268354
vt 0.396402 0.324286
vt 0.431733 0.268355
vt 0.396402 0.268355
vt 0.007752 0.268354
vt 0.043084 0.324286
vt 0.078416 0.268354
vt 0.043084 0.268354
vt 0.113748 0.268354
vt 0.149080 0.324286
vt 0.149080 0.268354
vt 0.219743 0.268354
vt 0.184411 0.268354
vt 0.255075 0.546998
vt 0.290407 0.509244
vt 0.290406 0.546998
vt 0.219743 0.509244
vt 0.255075 0.509244
vt 0.325739 0.509244
vt 0.325739 0.546998
vt 0.361070 0.509244
vt 0.361070 0.546998
vt 0.396402 0.546998
vt 0.431733 0.509244
vt 0.431733 0.546998
vt 0.007752 0.509244
vt 0.043085 0.546998
vt 0.007752 0.546998
vt 0.078416 0.509244
vt 0.078416 0.546998
vt 0.113748 0.509244
vt 0.113748 0.546998
vt 0.149080 0.546998
vt 0.184411 0.509244
vt 0.184411 0.546998
vt 0.219743 0.546998
vt 0.396402 0.509244
vt 0.043084 0.509244
vt 0.149080 0.509244
vt 0.290055 0.010797
vt 0.254723 0.121538
vt 0.254723 0.010797
vt 0.325387 0.121538
vt 0.290055 0.121538
vt 0.360718 0.010797
vt 0.325387 0.010797
vt 0.396050 0.121538
vt 0.360718 0.121538
vt 0.396050 0.010797
vt 0.431382 0.121538
vt 0.042732 0.010797
vt 0.007401 0.121538
vt 0.007401 0.010797
vt 0.078064 0.010797
vt 0.042732 0.121538
vt 0.113396 0.121538
vt 0.078064 0.121538
vt 0.148728 0.010797
vt 0.113396 0.010797
vt 0.184060 0.010797
vt 0.148728 0.121538
vt 0.219392 0.121538
vt 0.184060 0.121538
vt 0.219392 0.010797
vt 0.254723 0.261531
vt 0.325387 0.261531
vt 0.290055 0.261531
vt 0.360718 0.261531
vt 0.431382 0.261531
vt 0.396050 0.261531
vt 0.042732 0.261531
vt 0.007401 0.261531
vt 0.078064 0.261531
vt 0.148728 0.261531
vt 0.113396 0.261531
vt 0.219392 0.261531
vt 0.184060 0.261531
vt 0.936649 0.781311
vt 0.906282 0.834130
vt 0.906282 0.773140
vt 0.853683 0.803635
vt 0.845545 0.834130
vt 0.958880 0.864625
vt 0.967017 0.834130
vt 0.875914 0.886949
vt 0.906282 0.895120
vt 0.853683 0.864625
vt 0.875914 0.781311
vt 0.958880 0.803635
vt 0.936649 0.886949
vt 0.990401 0.582727
vt 0.909313 0.537852
vt 0.990401 0.537852
vt 0.909313 0.582727
vt 0.811196 0.537852
vt 0.811196 0.582727
vt 0.752806 0.537852
vt 0.752806 0.582727
vt 0.705458 0.537852
vt 0.705458 0.582727
vt 0.678719 0.537852
vt 0.678719 0.582727
vt 0.651981 0.537852
vt 0.651981 0.582727
vt 0.625243 0.537851
vt 0.625243 0.582727
vt 0.598505 0.537851
vt 0.598505 0.582727
vt 0.562934 0.537851
vt 0.562934 0.582727
vt 0.528834 0.537851
vt 0.528834 0.582727
vt 0.496207 0.537851
vt 0.496207 0.582727
vt 0.439289 0.537851
vt 0.909313 0.492976
vt 0.990401 0.492976
vt 0.811196 0.492976
vt 0.752806 0.492976
vt 0.705458 0.492976
vt 0.678719 0.492976
vt 0.651981 0.492976
vt 0.625243 0.492976
vt 0.598505 0.492976
vt 0.562934 0.492976
vt 0.528834 0.492976
vt 0.496207 0.492976
vt 0.439289 0.492976
vt 0.990401 0.448101
vt 0.909313 0.448101
vt 0.811196 0.448101
vt 0.752806 0.448101
vt 0.705458 0.448101
vt 0.678719 0.448101
vt 0.651981 0.448101
vt 0.625243 0.448101
vt 0.598505 0.448101
vt 0.562934 0.448101
vt 0.528834 0.448101
vt 0.496207 0.448101
vt 0.439289 0.448101
vt 0.803522 0.844228
vt 0.833306 0.844228
vt 0.750082 0.900333
vt 0.666858 0.844228
vt 0.696643 0.844228
vt 0.718145 0.844228
vt 0.735122 0.844228
vt 0.750082 0.844228
vt 0.765042 0.844228
vt 0.782019 0.844228
vt 0.684180 0.770363
vt 0.654741 0.770363
vt 0.708995 0.770363
vt 0.750082 0.770363
vt 0.730412 0.770363
vt 0.769751 0.770363
vt 0.791169 0.770363
vt 0.815983 0.770363
vt 0.845423 0.770363
vt 0.578704 0.882205
vt 0.474879 0.778283
vt 0.519161 0.778283
vt 0.333653 0.739640
vt 0.415337 0.882205
vt 0.415337 0.597074
vt 0.452738 0.739640
vt 0.578704 0.597074
vt 0.474879 0.700996
vt 0.541303 0.739640
vt 0.519161 0.700996
vt 0.660387 0.739640
vt 0.497020 0.739640
vt 0.990459 0.012090
vt 0.990459 0.439623
vt 0.431733 0.580900
vt 0.431382 0.010797
vt 0.439289 0.582727
s 1
usemtl blinn3SG
f 2/1/1 17/2/2 1/3/2
f 2/1/1 19/4/3 18/5/1
f 3/6/3 20/7/4 19/4/3
f 5/8/5 20/7/4 4/9/4
f 6/10/6 21/11/5 5/8/5
f 7/12/7 22/13/6 6/10/6
f 8/14/8 23/15/7 7/12/7
f 9/16/9 24/17/8 8/14/8
f 10/18/10 25/19/9 9/16/9
f 11/20/11 26/21/10 10/18/10
f 12/22/12 27/23/11 11/20/11
f 13/24/13 28/25/12 12/22/12
f 14/26/14 29/27/13 13/24/13
f 15/28/15 30/29/14 14/26/14
f 16/30/16 31/31/15 15/28/15
f 1/3/2 32/32/16 16/33/16
f 33/34/17 34/35/17 35/36/17
f 34/35/17 36/37/17 35/36/17
f 36/37/17 37/38/17 35/36/17
f 37/38/17 38/39/17 35/36/17
f 38/39/17 39/40/17 35/36/17
f 39/40/17 40/41/17 35/36/17
f 40/41/17 41/42/17 35/36/17
f 41/42/17 42/43/17 35/36/17
f 42/43/17 43/44/17 35/36/17
f 43/44/17 44/45/17 35/36/17
f 44/45/17 45/46/17 35/36/17
f 45/46/17 46/47/17 35/36/17
f 46/47/17 47/48/17 35/36/17
f 47/48/17 48/49/17 35/36/17
f 48/49/17 49/50/17 35/36/17
f 49/50/17 33/34/17 35/36/17
f 50/51/18 32/32/19 17/2/20
f 65/52/21 33/53/22 49/54/23
f 51/55/24 33/53/22 50/51/18
f 18/5/25 50/51/18 17/2/20
f 52/56/26 34/57/27 51/55/24
f 19/4/28 51/55/24 18/5/25
f 53/58/29 36/59/30 52/56/26
f 53/58/29 19/4/28 20/7/31
f 54/60/32 37/61/33 53/58/29
f 54/60/32 20/7/31 21/11/34
f 55/62/35 38/63/36 54/60/32
f 22/13/37 54/60/32 21/11/34
f 56/64/38 39/65/39 55/62/35
f 23/15/40 55/62/35 22/13/37
f 57/66/41 40/67/42 56/64/38
f 57/66/41 23/15/40 24/17/43
f 57/66/41 42/68/44 41/69/45
f 58/70/46 24/17/43 25/19/47
f 59/71/48 42/68/44 58/70/46
f 59/71/48 25/19/47 26/21/49
f 60/72/50 43/73/51 59/71/48
f 60/72/50 26/21/49 27/23/52
f 60/72/50 45/74/53 44/75/54
f 61/76/55 27/23/52 28/25/56
f 62/77/57 45/74/53 61/76/55
f 62/77/57 28/25/56 29/27/58
f 63/78/59 46/79/60 62/77/57
f 30/29/61 62/77/57 29/27/58
f 64/80/62 47/81/63 63/78/59
f 64/80/62 30/29/61 31/31/64
f 64/80/62 49/82/23 48/83/65
f 65/84/21 31/31/64 32/85/19
f 67/86/66 78/87/67 66/88/67
f 68/89/68 79/90/66 67/86/66
f 69/91/69 80/92/68 68/89/68
f 69/91/69 82/93/70 81/94/69
f 70/95/71 83/96/72 82/93/70
f 71/97/72 84/98/73 83/99/72
f 73/100/74 84/98/73 72/101/73
f 74/102/75 85/103/74 73/100/74
f 75/104/76 86/105/75 74/102/75
f 75/104/76 88/106/77 87/107/76
f 77/108/78 88/106/77 76/109/77
f 77/108/78 78/87/67 89/110/78
f 67/111/16 66/112/16 90/113/16
f 68/114/16 67/111/16 90/113/16
f 69/115/16 68/114/16 90/113/16
f 70/116/16 69/115/16 90/113/16
f 71/117/16 70/116/16 90/113/16
f 72/118/16 71/117/16 90/113/16
f 73/119/16 72/118/16 90/113/16
f 74/120/16 73/119/16 90/113/16
f 75/121/16 74/120/16 90/113/16
f 76/122/16 75/121/16 90/113/16
f 77/123/16 76/122/16 90/113/16
f 66/112/16 77/123/16 90/113/16
f 79/90/79 91/124/80 78/87/81
f 80/92/82 92/125/79 79/90/79
f 81/94/83 93/126/82 80/92/82
f 82/93/84 94/127/85 81/94/83
f 83/96/86 95/128/84 82/93/84
f 84/98/87 96/129/86 83/99/86
f 84/98/87 98/130/88 97/131/87
f 85/103/89 99/132/90 98/130/88
f 87/107/91 99/132/90 86/105/90
f 87/107/91 101/133/92 100/134/91
f 88/106/93 102/135/94 101/133/92
f 78/87/81 102/135/94 89/110/94
f 91/124/95 104/136/96 103/137/97
f 92/125/98 105/138/99 104/136/96
f 94/127/100 105/138/99 93/126/101
f 94/127/100 107/139/102 106/140/103
f 96/141/104 107/139/102 95/128/105
f 96/129/104 109/142/106 108/143/107
f 98/130/108 109/142/106 97/131/109
f 99/132/110 110/144/111 98/130/108
f 100/134/112 111/145/113 99/132/110
f 101/133/114 112/146/115 100/134/112
f 102/135/116 113/147/117 101/133/114
f 91/124/95 114/148/118 102/135/116
f 103/137/97 116/149/119 115/150/120
f 105/138/99 116/149/119 104/136/96
f 105/138/99 118/151/121 117/152/122
f 106/140/103 119/153/123 118/151/121
f 108/154/107 119/153/123 107/139/102
f 108/143/107 121/155/124 120/156/125
f 110/144/111 121/155/124 109/142/106
f 110/144/111 123/157/126 122/158/127
f 111/145/113 124/159/128 123/157/126
f 113/147/117 124/159/128 112/146/115
f 114/148/118 125/160/129 113/147/117
f 114/148/118 115/150/120 126/161/130
f 116/149/131 127/162/132 115/150/132
f 117/152/4 128/163/131 116/149/131
f 118/151/133 129/164/4 117/152/4
f 119/153/134 130/165/133 118/151/133
f 120/166/135 131/167/134 119/153/134
f 121/155/136 132/168/135 120/156/135
f 122/158/137 133/169/136 121/155/136
f 123/157/12 134/170/137 122/158/137
f 124/159/138 135/171/12 123/157/12
f 125/160/139 136/172/138 124/159/138
f 126/161/17 137/173/139 125/160/139
f 115/150/132 138/174/17 126/161/17
f 127/162/8 140/175/8 139/176/8
f 128/163/8 141/177/8 140/175/8
f 129/164/8 142/178/8 141/177/8
f 131/167/8 142/178/8 130/165/8
f 132/179/8 143/180/8 131/167/8
f 132/168/8 145/181/8 144/182/8
f 134/170/8 145/181/8 133/169/8
f 135/171/8 146/183/8 134/170/8
f 136/172/8 147/184/8 135/171/8
f 137/173/8 148/185/8 136/172/8
f 138/174/8 149/186/8 137/173/8
f 138/174/8 139/176/8 150/187/8
f 152/188/140 163/189/141 151/190/142
f 153/191/143 164/192/144 152/188/140
f 154/193/145 165/194/146 153/191/143
f 155/195/147 166/196/148 154/193/145
f 156/197/149 167/198/150 155/195/147
f 157/199/151 168/200/152 156/201/149
f 157/199/151 170/202/153 169/203/154
f 158/204/155 171/205/156 170/202/153
f 160/206/157 171/205/156 159/207/158
f 160/206/157 173/208/159 172/209/160
f 161/210/161 174/211/162 173/208/159
f 151/190/142 174/211/162 162/212/163
f 175/213/164 209/214/165 176/215/166
f 177/216/167 208/217/168 175/213/164
f 175/213/164 180/218/169 177/216/167
f 176/215/166 178/219/170 175/213/164
f 180/218/169 181/220/171 183/221/172
f 178/219/170 182/222/173 181/220/171
f 181/220/171 186/223/174 183/221/172
f 182/222/173 184/224/175 181/220/171
f 184/224/175 189/225/176 186/223/174
f 185/226/177 187/227/178 184/224/175
f 187/227/178 192/228/179 189/225/176
f 187/227/178 191/229/180 190/230/181
f 190/231/181 195/232/182 192/233/179
f 191/234/180 193/235/183 190/231/181
f 193/235/183 198/236/184 195/232/182
f 193/235/183 197/237/185 196/238/186
f 196/238/186 201/239/187 198/236/184
f 196/238/186 200/240/188 199/241/189
f 199/241/189 204/242/190 201/239/187
f 200/240/188 202/243/191 199/241/189
f 204/242/190 205/244/192 207/245/193
f 202/243/191 206/246/194 205/244/192
f 207/245/193 208/217/168 210/247/195
f 205/244/192 209/214/165 208/217/168
f 140/248/196 176/215/166 139/249/197
f 141/250/198 179/251/199 140/248/196
f 141/250/198 185/226/177 182/222/173
f 142/252/200 188/253/201 185/226/177
f 144/254/202 188/253/201 143/255/203
f 144/256/202 194/257/204 191/234/180
f 146/258/205 194/257/204 145/259/206
f 147/260/207 197/237/185 146/258/205
f 147/260/207 203/261/208 200/240/188
f 148/262/209 206/246/194 203/261/208
f 150/263/210 206/246/194 149/264/211
f 150/263/210 176/215/166 209/214/165
f 211/265/212 214/266/213 213/267/214
f 211/265/212 234/268/215 212/269/216
f 213/267/214 216/270/217 215/271/218
f 215/271/218 218/272/219 217/273/220
f 218/272/219 219/274/221 217/273/220
f 219/274/221 222/275/222 221/276/223
f 222/277/222 223/278/224 221/279/223
f 223/278/224 226/280/225 225/281/226
f 225/281/226 228/282/227 227/283/228
f 228/282/227 229/284/229 227/283/228
f 229/284/229 232/285/230 231/286/231
f 231/286/231 234/268/215 233/287/232
f 211/265/212 152/188/140 151/190/142
f 215/271/218 152/188/140 213/267/214
f 215/271/218 154/193/145 153/191/143
f 217/273/220 155/195/147 154/193/145
f 221/276/223 155/195/147 219/274/221
f 221/279/223 157/199/151 156/201/149
f 225/281/226 157/199/151 223/278/224
f 227/283/228 158/204/155 225/281/226
f 227/283/228 160/206/157 159/207/158
f 231/286/231 160/206/157 229/284/229
f 233/287/232 161/210/161 231/286/231
f 233/287/232 151/190/142 162/212/163
f 177/216/167 214/266/213 212/269/216
f 183/221/172 214/266/213 180/218/169
f 186/223/174 216/270/217 183/221/172
f 189/225/176 218/272/219 186/223/174
f 192/228/179 220/288/233 189/225/176
f 195/232/182 222/277/222 192/233/179
f 198/236/184 224/289/234 195/232/182
f 201/239/187 226/280/225 198/236/184
f 204/242/190 228/282/227 201/239/187
f 207/245/193 230/290/235 204/242/190
f 210/247/195 232/285/230 207/245/193
f 177/216/167 234/268/215 210/247/195
f 164/291/144 235/292/236 163/293/141
f 164/291/144 237/294/237 236/295/238
f 166/296/148 237/294/237 165/297/146
f 166/296/148 239/298/239 238/299/240
f 167/300/150 240/301/241 239/298/239
f 169/302/154 240/303/241 168/304/152
f 170/305/153 241/306/242 169/302/154
f 170/305/153 243/307/243 242/308/244
f 172/309/160 243/307/243 171/310/156
f 173/311/159 244/312/245 172/309/160
f 173/311/159 246/313/246 245/314/247
f 163/293/141 246/313/246 174/315/162
f 236/295/238 247/316/248 235/292/236
f 236/295/238 249/317/249 248/318/250
f 238/299/240 249/317/249 237/294/237
f 239/298/239 250/319/251 238/299/240
f 239/298/239 252/320/252 251/321/253
f 240/303/241 253/322/254 252/323/252
f 241/306/242 254/324/255 253/322/254
f 243/307/243 254/324/255 242/308/244
f 243/307/243 256/325/256 255/326/257
f 245/314/247 256/325/256 244/312/245
f 245/314/247 258/327/258 257/328/259
f 235/292/236 258/327/258 246/313/246
f 256/329/256 259/330/8 255/331/257
f 253/332/254 259/330/8 252/333/252
f 247/334/248 259/330/8 258/335/258
f 250/336/251 259/330/8 249/337/249
f 252/333/252 259/330/8 251/338/253
f 251/338/253 259/330/8 250/336/251
f 255/331/257 259/330/8 254/339/255
f 254/339/255 259/330/8 253/332/254
f 258/335/258 259/330/8 257/340/259
f 257/340/259 259/330/8 256/329/256
f 248/341/250 249/337/249 259/330/8
f 248/341/250 259/330/8 247/334/248
f 260/342/260 275/343/261 261/344/262
f 263/345/263 276/346/264 275/343/261
f 264/347/265 277/348/266 276/346/264
f 265/349/267 278/350/268 277/348/266
f 266/351/269 279/352/270 278/350/268
f 267/353/271 280/354/272 279/352/270
f 268/355/273 281/356/274 280/354/272
f 269/357/275 282/358/276 281/356/274
f 270/359/277 283/360/278 282/358/276
f 271/361/279 284/362/280 283/360/278
f 272/363/281 285/364/282 284/362/280
f 273/365/283 286/366/284 285/364/282
f 261/344/262 287/367/285 262/368/286
f 287/367/285 276/346/264 288/369/287
f 288/369/287 277/348/266 289/370/288
f 289/370/288 278/350/268 290/371/289
f 290/371/289 279/352/270 291/372/290
f 291/372/290 280/354/272 292/373/291
f 292/373/291 281/356/274 293/374/292
f 293/374/292 282/358/276 294/375/293
f 294/375/293 283/360/278 295/376/294
f 295/376/294 284/362/280 296/377/295
f 296/377/295 285/364/282 297/378/296
f 297/378/296 286/366/284 298/379/297
f 260/380/260 287/367/285 263/381/263
f 264/382/265 287/367/285 288/369/287
f 288/369/287 265/383/267 264/382/265
f 266/384/269 289/370/288 290/371/289
f 267/385/271 290/371/289 291/372/290
f 268/386/273 291/372/290 292/373/291
f 269/387/275 292/373/291 293/374/292
f 270/388/277 293/374/292 294/375/293
f 271/389/279 294/375/293 295/376/294
f 272/390/281 295/376/294 296/377/295
f 273/391/283 296/377/295 297/378/296
f 274/392/298 297/378/296 298/379/297
f 315/393/299 308/394/300 307/395/17
f 308/396/300 309/397/301 307/395/17
f 309/397/301 310/398/302 307/395/17
f 310/398/302 311/399/303 307/395/17
f 311/399/303 312/400/304 307/395/17
f 312/400/304 313/401/305 307/395/17
f 313/401/305 314/402/306 307/395/17
f 314/402/306 315/393/299 307/395/17
f 300/403/4 308/396/300 299/404/1
f 301/405/6 309/397/301 300/403/4
f 301/405/6 311/399/303 310/398/302
f 303/406/10 311/399/303 302/407/8
f 304/408/12 312/400/304 303/406/10
f 305/409/14 313/401/305 304/408/12
f 306/410/16 314/402/306 305/409/14
f 299/411/1 315/393/299 306/410/16
f 316/412/307 323/413/308 322/414/309
f 318/415/310 323/413/308 317/416/311
f 319/417/312 324/418/313 318/415/310
f 320/419/314 325/420/315 319/417/312
f 320/419/314 327/421/316 326/422/317
f 321/423/318 322/414/309 327/421/316
f 322/414/309 323/413/308 328/424/8
f 323/413/308 324/418/313 328/424/8
f 324/418/313 325/420/315 328/424/8
f 325/420/315 326/422/317 328/424/8
f 326/422/317 327/421/316 328/424/8
f 327/421/316 322/414/309 328/424/8
f 2/1/1 18/5/1 17/2/2
f 2/1/1 3/6/3 19/4/3
f 3/6/3 4/9/4 20/7/4
f 5/8/5 21/11/5 20/7/4
f 6/10/6 22/13/6 21/11/5
f 7/12/7 23/15/7 22/13/6
f 8/14/8 24/17/8 23/15/7
f 9/16/9 25/19/9 24/17/8
f 10/18/10 26/21/10 25/19/9
f 11/20/11 27/23/11 26/21/10
f 12/22/12 28/25/12 27/23/11
f 13/24/13 29/27/13 28/25/12
f 14/26/14 30/29/14 29/27/13
f 15/28/15 31/31/15 30/29/14
f 16/30/16 32/85/16 31/31/15
f 1/3/2 17/2/2 32/32/16
f 50/51/18 65/52/21 32/32/19
f 65/52/21 50/51/18 33/53/22
f 51/55/24 34/57/27 33/53/22
f 18/5/25 51/55/24 50/51/18
f 52/56/26 36/59/30 34/57/27
f 19/4/28 52/56/26 51/55/24
f 53/58/29 37/61/33 36/59/30
f 53/58/29 52/56/26 19/4/28
f 54/60/32 38/63/36 37/61/33
f 54/60/32 53/58/29 20/7/31
f 55/62/35 39/65/39 38/63/36
f 22/13/37 55/62/35 54/60/32
f 56/64/38 40/67/42 39/65/39
f 23/15/40 56/64/38 55/62/35
f 57/66/41 41/69/45 40/67/42
f 57/66/41 56/64/38 23/15/40
f 57/66/41 58/70/46 42/68/44
f 58/70/46 57/66/41 24/17/43
f 59/71/48 43/73/51 42/68/44
f 59/71/48 58/70/46 25/19/47
f 60/72/50 44/75/54 43/73/51
f 60/72/50 59/71/48 26/21/49
f 60/72/50 61/76/55 45/74/53
f 61/76/55 60/72/50 27/23/52
f 62/77/57 46/79/60 45/74/53
f 62/77/57 61/76/55 28/25/56
f 63/78/59 47/81/63 46/79/60
f 30/29/61 63/78/59 62/77/57
f 64/80/62 48/83/65 47/81/63
f 64/80/62 63/78/59 30/29/61
f 64/80/62 65/84/21 49/82/23
f 65/84/21 64/80/62 31/31/64
f 67/86/66 79/90/66 78/87/67
f 68/89/68 80/92/68 79/90/66
f 69/91/69 81/94/69 80/92/68
f 69/91/69 70/95/71 82/93/70
f 70/95/71 71/425/72 83/96/72
f 71/97/72 72/101/73 84/98/73
f 73/100/74 85/103/74 84/98/73
f 74/102/75 86/105/75 85/103/74
f 75/104/76 87/107/76 86/105/75
f 75/104/76 76/109/77 88/106/77
f 77/108/78 89/110/78 88/106/77
f 77/108/78 66/88/67 78/87/67
f 79/90/79 92/125/79 91/124/80
f 80/92/82 93/126/82 92/125/79
f 81/94/83 94/127/85 93/126/82
f 82/93/84 95/128/84 94/127/85
f 83/96/86 96/141/86 95/128/84
f 84/98/87 97/131/87 96/129/86
f 84/98/87 85/103/89 98/130/88
f 85/103/89 86/105/90 99/132/90
f 87/107/91 100/134/91 99/132/90
f 87/107/91 88/106/93 101/133/92
f 88/106/93 89/110/94 102/135/94
f 78/87/81 91/124/80 102/135/94
f 91/124/95 92/125/98 104/136/96
f 92/125/98 93/126/101 105/138/99
f 94/127/100 106/140/103 105/138/99
f 94/127/100 95/128/105 107/139/102
f 96/141/104 108/154/107 107/139/102
f 96/129/104 97/131/109 109/142/106
f 98/130/108 110/144/111 109/142/106
f 99/132/110 111/145/113 110/144/111
f 100/134/112 112/146/115 111/145/113
f 101/133/114 113/147/117 112/146/115
f 102/135/116 114/148/118 113/147/117
f 91/124/95 103/137/97 114/148/118
f 103/137/97 104/136/96 116/149/119
f 105/138/99 117/152/122 116/149/119
f 105/138/99 106/140/103 118/151/121
f 106/140/103 107/139/102 119/153/123
f 108/154/107 120/166/125 119/153/123
f 108/143/107 109/142/106 121/155/124
f 110/144/111 122/158/127 121/155/124
f 110/144/111 111/145/113 123/157/126
f 111/145/113 112/146/115 124/159/128
f 113/147/117 125/160/129 124/159/128
f 114/148/118 126/161/130 125/160/129
f 114/148/118 103/137/97 115/150/120
f 116/149/131 128/163/131 127/162/132
f 117/152/4 129/164/4 128/163/131
f 118/151/133 130/165/133 129/164/4
f 119/153/134 131/167/134 130/165/133
f 120/166/135 132/179/135 131/167/134
f 121/155/136 133/169/136 132/168/135
f 122/158/137 134/170/137 133/169/136
f 123/157/12 135/171/12 134/170/137
f 124/159/138 136/172/138 135/171/12
f 125/160/139 137/173/139 136/172/138
f 126/161/17 138/174/17 137/173/139
f 115/150/132 127/162/132 138/174/17
f 127/162/8 128/163/8 140/175/8
f 128/163/8 129/164/8 141/177/8
f 129/164/8 130/165/8 142/178/8
f 131/167/8 143/180/8 142/178/8
f 132/179/8 144/426/8 143/180/8
f 132/168/8 133/169/8 145/181/8
f 134/170/8 146/183/8 145/181/8
f 135/171/8 147/184/8 146/183/8
f 136/172/8 148/185/8 147/184/8
f 137/173/8 149/186/8 148/185/8
f 138/174/8 150/187/8 149/186/8
f 138/174/8 127/162/8 139/176/8
f 152/188/140 164/192/144 163/189/141
f 153/191/143 165/194/146 164/192/144
f 154/193/145 166/196/148 165/194/146
f 155/195/147 167/198/150 166/196/148
f 156/197/149 168/427/152 167/198/150
f 157/199/151 169/203/154 168/200/152
f 157/199/151 158/204/155 170/202/153
f 158/204/155 159/207/158 171/205/156
f 160/206/157 172/209/160 171/205/156
f 160/206/157 161/210/161 173/208/159
f 161/210/161 162/212/163 174/211/162
f 151/190/142 163/189/141 174/211/162
f 175/213/164 208/217/168 209/214/165
f 177/216/167 210/247/195 208/217/168
f 175/213/164 178/219/170 180/218/169
f 176/215/166 179/251/199 178/219/170
f 180/218/169 178/219/170 181/220/171
f 178/219/170 179/251/199 182/222/173
f 181/220/171 184/224/175 186/223/174
f 182/222/173 185/226/177 184/224/175
f 184/224/175 187/227/178 189/225/176
f 185/226/177 188/253/201 187/227/178
f 187/227/178 190/230/181 192/228/179
f 187/227/178 188/253/201 191/229/180
f 190/231/181 193/235/183 195/232/182
f 191/234/180 194/257/204 193/235/183
f 193/235/183 196/238/186 198/236/184
f 193/235/183 194/257/204 197/237/185
f 196/238/186 199/241/189 201/239/187
f 196/238/186 197/237/185 200/240/188
f 199/241/189 202/243/191 204/242/190
f 200/240/188 203/261/208 202/243/191
f 204/242/190 202/243/191 205/244/192
f 202/243/191 203/261/208 206/246/194
f 207/245/193 205/244/192 208/217/168
f 205/244/192 206/246/194 209/214/165
f 140/248/196 179/251/199 176/215/166
f 141/250/198 182/222/173 179/251/199
f 141/250/198 142/252/200 185/226/177
f 142/252/200 143/255/203 188/253/201
f 144/254/202 191/229/180 188/253/201
f 144/256/202 145/259/206 194/257/204
f 146/258/205 197/237/185 194/257/204
f 147/260/207 200/240/188 197/237/185
f 147/260/207 148/262/209 203/261/208
f 148/262/209 149/264/211 206/246/194
f 150/263/210 209/214/165 206/246/194
f 150/263/210 139/249/197 176/215/166
f 211/265/212 212/269/216 214/266/213
f 211/265/212 233/287/232 234/268/215
f 213/267/214 214/266/213 216/270/217
f 215/271/218 216/270/217 218/272/219
f 218/272/219 220/288/233 219/274/221
f 219/274/221 220/288/233 222/275/222
f 222/277/222 224/289/234 223/278/224
f 223/278/224 224/289/234 226/280/225
f 225/281/226 226/280/225 228/282/227
f 228/282/227 230/290/235 229/284/229
f 229/284/229 230/290/235 232/285/230
f 231/286/231 232/285/230 234/268/215
f 211/265/212 213/267/214 152/188/140
f 215/271/218 153/191/143 152/188/140
f 215/271/218 217/273/220 154/193/145
f 217/273/220 219/274/221 155/195/147
f 221/276/223 156/197/149 155/195/147
f 221/279/223 223/278/224 157/199/151
f 225/281/226 158/204/155 157/199/151
f 227/283/228 159/207/158 158/204/155
f 227/283/228 229/284/229 160/206/157
f 231/286/231 161/210/161 160/206/157
f 233/287/232 162/212/163 161/210/161
f 233/287/232 211/265/212 151/190/142
f 177/216/167 180/218/169 214/266/213
f 183/221/172 216/270/217 214/266/213
f 186/223/174 218/272/219 216/270/217
f 189/225/176 220/288/233 218/272/219
f 192/228/179 222/275/222 220/288/233
f 195/232/182 224/289/234 222/277/222
f 198/236/184 226/280/225 224/289/234
f 201/239/187 228/282/227 226/280/225
f 204/242/190 230/290/235 228/282/227
f 207/245/193 232/285/230 230/290/235
f 210/247/195 234/268/215 232/285/230
f 177/216/167 212/269/216 234/268/215
f 164/291/144 236/295/238 235/292/236
f 164/291/144 165/297/146 237/294/237
f 166/296/148 238/299/240 237/294/237
f 166/296/148 167/300/150 239/298/239
f 167/300/150 168/428/152 240/301/241
f 169/302/154 241/306/242 240/303/241
f 170/305/153 242/308/244 241/306/242
f 170/305/153 171/310/156 243/307/243
f 172/309/160 244/312/245 243/307/243
f 173/311/159 245/314/247 244/312/245
f 173/311/159 174/315/162 246/313/246
f 163/293/141 235/292/236 246/313/246
f 236/295/238 248/318/250 247/316/248
f 236/295/238 237/294/237 249/317/249
f 238/299/240 250/319/251 249/317/249
f 239/298/239 251/321/253 250/319/251
f 239/298/239 240/301/241 252/320/252
f 240/303/241 241/306/242 253/322/254
f 241/306/242 242/308/244 254/324/255
f 243/307/243 255/326/257 254/324/255
f 243/307/243 244/312/245 256/325/256
f 245/314/247 257/328/259 256/325/256
f 245/314/247 246/313/246 258/327/258
f 235/292/236 247/316/248 258/327/258
f 260/342/260 263/345/263 275/343/261
f 263/345/263 264/347/265 276/346/264
f 264/347/265 265/349/267 277/348/266
f 265/349/267 266/351/269 278/350/268
f 266/351/269 267/353/271 279/352/270
f 267/353/271 268/355/273 280/354/272
f 268/355/273 269/357/275 281/356/274
f 269/357/275 270/359/277 282/358/276
f 270/359/277 271/361/279 283/360/278
f 271/361/279 272/363/281 284/362/280
f 272/363/281 273/365/283 285/364/282
f 273/365/283 274/429/298 286/366/284
f 261/344/262 275/343/261 287/367/285
f 287/367/285 275/343/261 276/346/264
f 288/369/287 276/346/264 277/348/266
f 289/370/288 277/348/266 278/350/268
f 290/371/289 278/350/268 279/352/270
f 291/372/290 279/352/270 280/354/272
f 292/373/291 280/354/272 281/356/274
f 293/374/292 281/356/274 282/358/276
f 294/375/293 282/358/276 283/360/278
f 295/376/294 283/360/278 284/362/280
f 296/377/295 284/362/280 285/364/282
f 297/378/296 285/364/282 286/366/284
f 260/380/260 262/368/286 287/367/285
f 264/382/265 263/381/263 287/367/285
f 288/369/287 289/370/288 265/383/267
f 266/384/269 265/383/267 289/370/288
f 267/385/271 266/384/269 290/371/289
f 268/386/273 267/385/271 291/372/290
f 269/387/275 268/386/273 292/373/291
f 270/388/277 269/387/275 293/374/292
f 271/389/279 270/388/277 294/375/293
f 272/390/281 271/389/279 295/376/294
f 273/391/283 272/390/281 296/377/295
f 274/392/298 273/391/283 297/378/296
f 300/403/4 309/397/301 308/396/300
f 301/405/6 310/398/302 309/397/301
f 301/405/6 302/407/8 311/399/303
f 303/406/10 312/400/304 311/399/303
f 304/408/12 313/401/305 312/400/304
f 305/409/14 314/402/306 313/401/305
f 306/410/16 315/393/299 314/402/306
f 299/411/1 308/394/300 315/393/299
f 316/412/307 317/416/311 323/413/308
f 318/415/310 324/418/313 323/413/308
f 319/417/312 325/420/315 324/418/313
f 320/419/314 326/422/317 325/420/315
f 320/419/314 321/423/318 327/421/316
f 321/423/318 316/412/307 322/414/309
